<svg xmlns="http://www.w3.org/2000/svg" viewBox="0 0 300 60" width="300" height="60">
  <path fill="#000000" d="M38.2,30.3c-1.3-1.6-3.2-2.3-5.3-2.3c-4.4,0-7.3,3.3-7.3,8.1s2.9,8.1,7.3,8.1c2.2,0,4.1-0.9,5.3-2.5l5.2,4.8
	c-2.4,3.1-5.9,4.7-10.5,4.7c-8.7,0-15-6-15-15.1s6.2-15.1,15-15.1c4.5,0,8.1,1.7,10.5,5L38.2,30.3z M66.4,30.2l-6.4,11h-0.1
	l-6.4-11l-7.9-13.6h8.8l5.6,10.8l5.4-10.8h8.8L66.4,30.2z M66.4,51.8h-7.8V35.6h7.8V51.8z M99.7,51.1l-5.6-7.8h-2.9v7.8h-7.8V16.6
	h12c7.8,0,12.3,4.4,12.3,10.9c0,4.8-2.5,8-6.6,9.8l6.8,9.2H99.7z M95.4,36.5c3.3,0,5-1.9,5-4.4c0-2.6-1.7-4.4-5-4.4h-4.2v8.9H95.4z
	 M144.1,51.1h-21v-35h20.5v6.4h-12.7v7.3h11.2v6.4h-11.2v8.5h13.2V51.1z M172.9,51.1h-18.7v-35h7.8v28.6h10.9V51.1z M207.2,51.1
	l-1.9-6.4h-10.3l-1.9,6.4h-8.2l11.4-35h7.6l11.4,35H207.2z M200.2,28l-3.2,10.7h6.5L200.2,28z"/>
</svg>
