<svg xmlns="http://www.w3.org/2000/svg" viewBox="0 0 400 60" width="400" height="60">
  <path fill="#000000" d="M35.6,48l-12-14.2l-3.8,4.2V48H12V12h7.8v18.8l14.8-18.8h9.8L28.8,26.5l17.4,21.5H35.6z M55.4,35.2
	c0.6-2.5,2.1-4.2,4.6-4.2c2.8,0,4.2,2,4.2,5.5v11.5h7.4V34.5c0-6-3.2-9.2-9-9.2c-3.8,0-6.2,1.8-7.2,4.5l-0.2-3.8h-7.2V48h7.4V35.2z
	 M89.8,35.2c0.6-2.5,2.1-4.2,4.6-4.2c2.8,0,4.2,2,4.2,5.5v11.5h7.4V34.5c0-6-3.2-9.2-9-9.2c-2.6,0-4.6,1-6,2.8
	c-0.6-2.5-2.1-4.2-4.6-4.2c-2.8,0-4.2,2-4.2,5.5v11.5h-7.4v-22h7.4l0.2,3.8c1-2.8,3.5-4.5,7.2-4.5c2.6,0,4.6,1,6,2.8
	c1-2.8,3.5-4.5,7.2-4.5c3.8,0,6.2,1.8,7.2,4.5V48h-7.4V35.2z M123.4,48v-29h6.8l0.2,4c1.2-2.8,3.8-4.8,7.5-4.8
	c5.8,0,9.8,4.8,9.8,11.2c0,6.5-4,11.2-9.8,11.2c-3.8,0-6.2-2-7.5-4.8l0.2,12.2H123.4z M132.8,32.2c0.6,1.8,2.2,2.8,4.2,2.8
	c2.5,0,4-1.8,4-5.2c0-3.5-1.5-5.2-4-5.2c-2,0-3.6,1-4.2,2.8V32.2z M157.2,48V26h7.4V48H157.2z M160.9,21.5c-2.5,0-4.2-1.8-4.2-4.2
	c0-2.5,1.8-4.2,4.2-4.2c2.5,0,4.2,1.8,4.2,4.2C165.1,19.8,163.4,21.5,160.9,21.5z M177.6,35.2c0.6-2.5,2.1-4.2,4.6-4.2
	c2.8,0,4.2,2,4.2,5.5v11.5h7.4V34.5c0-6-3.2-9.2-9-9.2c-3.8,0-6.2,1.8-7.2,4.5l-0.2-3.8H170V48h7.4V35.2z M207.4,42l-4.2-4.5
	c3.2-1.5,5-4.2,5-7.8c0-5.8-4.5-9.8-10.8-9.8h-7.8v4.5h2.2c1.8,0,2.5,0.8,2.5,2.5v10.5c0,1-0.2,1.8-0.8,2.2l-2,1.5v4.5h11.2
	C204.8,45.8,206.5,44.2,207.4,42z M218.4,48l-6.5-8l6-6.2l-4.5-0.5l-5.2,5.5l5.2,6.5L218.4,48z M214.8,26h6.8l0.2,4
	c1.2-2.8,3.8-4.8,7.5-4.8c4.2,0,7.2,2.5,8.8,6.8l-6.5,2.5c-0.8-1.8-2-2.8-3.8-2.8c-2.5,0-4,1.8-4,5.2c0,3.5,1.5,5.2,4,5.2
	c1.8,0,3-1,3.8-2.8l6.5,2.5c-1.5,4.2-4.5,6.8-8.8,6.8c-5.8,0-9.8-4.8-9.8-11.2c0-2.8,0.8-5.2,2-7.2V48h-6.8V26z M248.6,48V26h7.4
	V48H248.6z M252.3,21.5c-2.5,0-4.2-1.8-4.2-4.2c0-2.5,1.8-4.2,4.2-4.2c2.5,0,4.2,1.8,4.2,4.2C256.4,19.8,254.7,21.5,252.3,21.5z"/>
</svg>
