<svg xmlns="http://www.w3.org/2000/svg" viewBox="0 0 400 60" width="400" height="60">
  <path fill="#000000" d="M28.6,45.1V14.9h8.2l9.8,20l9.8-20h8.2v30.2h-7.8V23.5L48.2,42h-3.2L36.4,23.5v21.6H28.6z M76.8,45.6
	c-7.8,0-12.7-5.1-12.7-12.8V14.9h7.8v17.4c0,4.1,2,6.4,5.8,6.4c3.8,0,5.8-2.3,5.8-6.4V14.9h7.8v17.9C91.2,40.5,85.6,45.6,76.8,45.6z
	 M105.7,45.6c-5.8,0-9.4-3.1-9.4-8.8V14.9h7.8v21.3c0,2.1,1.1,3.1,3.1,3.1c1.9,0,3.1-1,3.1-3.1V14.9h7.8v21.9
	C118,42.5,113.8,45.6,105.7,45.6z M131.6,45.1V14.9h12.5c6.8,0,11.2,3.3,11.2,8.9c0,4.2-2.5,7-6.3,8.2l7.3,13h-8.8l-6.1-11.7h-2.1
	v11.7H131.6z M139.3,27.9h4.2c2.4,0,3.8-1.1,3.8-3.3c0-2.3-1.4-3.3-3.8-3.3h-4.2V27.9z M167.4,45.1l-1.8-5.6h-9.9l-1.8,5.6h-8.1
	l10.8-30.2h7.3l10.8,30.2H167.4z M160.7,23.9l-3.3,10h6.6L160.7,23.9z"/>
  <path fill="#000000" d="M205.7,45.1V14.9h11.2c8.9,0,15.1,5.6,15.1,15.1c0,9.5-6.2,15.1-15.1,15.1H205.7z M213.4,39.6h3.4
	c4.7,0,7.6-3.1,7.6-9.6c0-6.5-2.9-9.6-7.6-9.6h-3.4V39.6z M244.3,45.6c-5.8,0-9.4-3.1-9.4-8.8V14.9h7.8v21.3c0,2.1,1.1,3.1,3.1,3.1
	c1.9,0,3.1-1,3.1-3.1V14.9h7.8v21.9C256.7,42.5,252.4,45.6,244.3,45.6z M273.6,45.1V14.9h11c5.2,0,8.3,1.3,10,4.1
	c1,1.7,1.4,3.8,1.4,6.1c0,3.2-1,5.6-2.9,7.3c-2,1.8-5,2.7-8.8,2.7h-7.6v-5.5h6.6c2.4,0,3.9-1.3,3.9-4.3c0-2.8-1.5-4.2-4.3-4.2
	h-1.5v24h-7.8z M307.7,45.1V14.9h19.5v5.5h-11.7v7.2h10.8v5.5h-10.8v6.6h12.5v5.5H307.7z M339.6,45.6c-5.8,0-9.4-3.1-9.4-8.8V14.9
	h7.8v21.3c0,2.1,1.1,3.1,3.1,3.1c1.9,0,3.1-1,3.1-3.1V14.9h7.8v21.9C351.9,42.5,347.6,45.6,339.6,45.6z M363.3,45.1l7.1-11l-6.8-10.6
	h8.9l2.7,4.8l2.6-4.8H387l-6.8,10.6l7.2,11h-9.2l-3.3-5.8l-3.3,5.8H363.3z"/>
</svg>
